<?xml version="1.0" encoding="UTF-8" standalone="no"?>
<svg xmlns:ffdec="https://www.free-decompiler.com/flash" xmlns:xlink="http://www.w3.org/1999/xlink" ffdec:objectType="frame" height="11.95px" width="10.6px" xmlns="http://www.w3.org/2000/svg">
  <g transform="matrix(1.0, 0.0, 0.0, 1.0, -2.35, -2.15)">
    <use ffdec:characterId="3367" height="11.9" transform="matrix(0.7899, 0.0, 0.0, 0.7899, 6.3, 6.9)" width="10.05" xlink:href="#sprite0"/>
    <use ffdec:characterId="3367" height="11.9" transform="matrix(0.4807, 0.1288, -0.1288, 0.4807, 9.8, 10.6)" width="10.05" xlink:href="#sprite1"/>
  </g>
  <defs>
    <g id="sprite0">
      <use ffdec:characterId="3364" height="11.9" transform="matrix(1.0, 0.0, 0.0, 1.0, 0.0, 0.0)" width="10.05" xlink:href="#shape0"/>
    </g>
    <g id="shape0">
      <path d="M5.05 -5.95 L4.8 -3.1 0.4 1.8 -0.7 0.95 5.05 -5.95" fill="#dadada" fill-rule="evenodd" stroke="none"/>
      <path d="M-1.8 0.1 L2.15 -4.75 5.05 -5.95 -0.7 0.95 -1.3 0.5 -1.8 0.1" fill="#ffffff" fill-rule="evenodd" stroke="none"/>
      <path d="M-3.1 2.0 L-4.5 0.9 -3.0 -0.9 -1.8 0.1 -1.3 0.5 -2.8 2.25 -3.1 2.0" fill="#ffeb79" fill-rule="evenodd" stroke="none"/>
      <path d="M0.4 1.8 L1.7 2.75 0.15 4.65 -1.1 3.55 -2.2 2.7 -2.8 2.25 -1.3 0.5 -0.7 0.95 0.4 1.8" fill="#ffd900" fill-rule="evenodd" stroke="none"/>
      <path d="M-4.15 5.1 L-5.0 4.35 -3.1 2.0 -2.8 2.25 -2.2 2.7 -4.15 5.1" fill="#98745a" fill-rule="evenodd" stroke="none"/>
      <path d="M-1.1 3.55 L-3.15 5.95 -4.15 5.1 -2.2 2.7 -1.1 3.55" fill="#5f462e" fill-rule="evenodd" stroke="none"/>
      <path d="M-1.8 0.1 L2.15 -4.75 5.05 -5.95 4.8 -3.1 0.4 1.8 1.7 2.75 0.15 4.65 -1.1 3.55 -3.15 5.95 -4.15 5.1 -5.0 4.35 -3.1 2.0 -4.5 0.9 -3.0 -0.9 -1.8 0.1 Z" ffdec:has-small-stroke="true" ffdec:original-stroke-width="0.05" fill="none" stroke="#663300" stroke-linecap="round" stroke-linejoin="round" stroke-opacity="0.53333336" stroke-width="1.2659558028125484"/>
    </g>
    <g id="sprite1">
      <use ffdec:characterId="3364" height="11.9" transform="matrix(1.0, 0.0, 0.0, 1.0, 0.0, 0.0)" width="10.05" xlink:href="#shape1"/>
    </g>
    <g id="shape1">
      <path d="M5.05 -5.95 L4.8 -3.1 0.4 1.8 -0.7 0.95 5.05 -5.95" fill="#dadada" fill-rule="evenodd" stroke="none"/>
      <path d="M-1.8 0.1 L2.15 -4.75 5.05 -5.95 -0.7 0.95 -1.3 0.5 -1.8 0.1" fill="#ffffff" fill-rule="evenodd" stroke="none"/>
      <path d="M-3.1 2.0 L-4.5 0.9 -3.0 -0.9 -1.8 0.1 -1.3 0.5 -2.8 2.25 -3.1 2.0" fill="#ffeb79" fill-rule="evenodd" stroke="none"/>
      <path d="M0.4 1.8 L1.7 2.75 0.15 4.65 -1.1 3.55 -2.2 2.7 -2.8 2.25 -1.3 0.5 -0.7 0.95 0.4 1.8" fill="#ffd900" fill-rule="evenodd" stroke="none"/>
      <path d="M-4.15 5.1 L-5.0 4.35 -3.1 2.0 -2.8 2.25 -2.2 2.7 -4.15 5.1" fill="#98745a" fill-rule="evenodd" stroke="none"/>
      <path d="M-1.1 3.55 L-3.15 5.95 -4.15 5.1 -2.2 2.7 -1.1 3.55" fill="#5f462e" fill-rule="evenodd" stroke="none"/>
      <path d="M-1.8 0.1 L2.15 -4.75 5.05 -5.95 4.8 -3.1 0.4 1.8 1.7 2.75 0.15 4.65 -1.1 3.55 -3.15 5.95 -4.15 5.1 -5.0 4.35 -3.1 2.0 -4.5 0.9 -3.0 -0.9 -1.8 0.1 Z" ffdec:has-small-stroke="true" ffdec:original-stroke-width="0.05" fill="none" stroke="#663300" stroke-linecap="round" stroke-linejoin="round" stroke-opacity="0.53333336" stroke-width="2.0094282174572884"/>
    </g>
  </defs>
</svg>
