<?xml version="1.0" encoding="UTF-8" standalone="no"?>
<svg xmlns:ffdec="https://www.free-decompiler.com/flash" xmlns:xlink="http://www.w3.org/1999/xlink" ffdec:objectType="shape" height="233.0px" width="164.0px" xmlns="http://www.w3.org/2000/svg">
  <g transform="matrix(1.0, 0.0, 0.0, 1.0, 0.1, 0.1)">
    <path d="M155.0 86.4 L157.8 86.6 163.8 100.6 154.6 109.8 152.25 107.1 150.8 103.2 153.6 99.0 150.2 90.8 155.0 86.4 M74.2 209.9 L76.4 215.6 68.0 232.8 63.6 232.8 53.8 210.4 59.95 210.15 62.8 204.8 67.4 215.2 70.75 205.75 74.2 209.9 M0.0 97.8 L0.0 95.2 4.4 88.8 9.95 87.4 12.3 86.8 7.35 96.65 7.45 97.0 8.2 96.9 8.2 100.05 8.6 101.5 8.2 101.65 8.2 100.05 7.45 97.0 0.0 97.8 M109.35 7.4 L124.6 0.0 126.9 4.85 123.45 7.4 121.05 6.95 107.0 15.35 106.15 14.6 105.55 12.95 109.65 9.9 109.35 7.4 M153.0 103.2 L155.2 101.2 153.6 99.0 155.2 101.2 153.0 103.2 M152.1 91.4 L156.7 88.1 152.1 91.4" fill="#ffbf2b" fill-rule="evenodd" stroke="none"/>
    <path d="M149.05 109.7 L146.45 118.5 141.0 95.6 126.95 61.95 113.2 29.2 114.4 25.35 114.55 24.85 115.45 22.1 116.4 19.0 148.45 97.75 149.05 109.7 M91.0 183.4 L78.0 200.4 74.8 202.75 70.75 205.75 66.65 208.7 Q52.45 169.05 17.4 108.2 L15.0 102.0 Q26.85 88.25 33.6 74.4 L37.5 62.8 39.3 61.25 43.75 60.15 45.4 59.75 45.4 74.1 35.3 95.95 38.7 94.95 44.3 93.3 48.7 91.95 48.45 92.3 83.2 156.3 Q87.75 169.9 91.0 183.4 M137.0 80.2 L114.4 25.35 137.0 80.2 M50.8 52.55 L94.2 30.35 66.1 47.7 53.75 55.3 49.2 53.2 50.8 52.55 M38.2 78.2 L42.6 68.2 43.75 60.15 42.6 68.2 38.2 78.2 M29.2 93.0 L23.2 99.4 29.2 93.0 M53.6 52.8 L66.1 47.7 53.6 52.8 M84.6 174.8 Q78.55 158.5 70.85 142.0 59.65 118.0 45.0 93.6 59.65 118.0 70.85 142.0 78.55 158.5 84.6 174.8 M72.2 196.8 L55.4 154.4 72.2 196.8 M60.2 174.0 Q46.5 139.65 23.4 100.0 46.5 139.65 60.2 174.0" fill="#ae9a55" fill-rule="evenodd" stroke="none"/>
    <path d="M152.25 107.1 L149.05 109.7 148.45 97.75 116.4 19.0 94.2 30.35 50.8 52.55 44.65 43.95 44.55 43.8 Q62.0 38.8 80.25 29.0 98.5 19.2 106.15 14.6 L107.0 15.35 110.6 18.6 118.0 15.2 121.6 24.0 126.6 24.0 129.8 20.95 155.0 86.4 150.2 90.8 153.6 99.0 150.8 103.2 152.25 107.1 M55.7 207.25 Q47.8 189.5 36.35 166.95 24.1 142.85 13.65 124.65 15.45 123.75 17.2 122.9 29.95 141.35 40.5 165.4 L58.65 207.3 55.7 207.25" fill="#9c6201" fill-rule="evenodd" stroke="none"/>
    <path d="M146.45 118.5 Q152.55 127.65 120.8 140.4 L112.6 142.95 102.0 141.7 98.2 136.0 98.2 126.1 102.2 123.1 96.2 119.35 96.2 118.55 93.4 116.35 90.7 116.1 87.9 111.9 88.15 101.9 89.95 102.95 92.95 94.6 92.8 94.25 93.1 94.15 94.85 92.95 95.35 92.55 96.3 93.8 97.3 95.15 97.8 98.9 110.75 119.6 109.0 123.8 108.8 130.45 111.35 130.6 114.6 128.45 115.3 130.35 119.65 128.7 126.75 129.15 127.25 126.9 133.55 124.35 135.3 117.6 131.3 113.9 130.25 110.65 126.1 97.5 127.7 84.6 121.65 75.55 119.6 75.7 119.0 75.75 115.75 76.0 115.15 74.95 114.3 75.3 113.65 73.7 113.3 71.75 113.25 71.55 111.45 67.2 112.6 61.55 112.95 56.05 113.45 49.25 111.15 43.75 106.5 46.3 106.5 46.2 106.2 46.5 96.85 52.9 89.3 49.25 81.55 59.65 81.05 62.05 73.15 62.15 78.35 66.6 80.05 66.55 78.7 72.8 81.0 78.3 82.35 75.0 85.45 82.4 87.05 80.95 89.45 90.55 89.8 92.1 84.35 87.7 79.2 94.45 74.05 86.95 70.85 63.65 86.6 47.05 88.95 45.75 Q92.0 44.05 96.3 41.2 L104.3 42.35 109.05 39.1 115.45 44.55 116.45 51.15 126.95 61.95 141.0 95.6 146.45 118.5 M96.95 105.95 L96.15 108.45 101.65 113.3 101.3 108.75 96.95 105.95" fill="#ecde97" fill-rule="evenodd" stroke="none"/>
    <path d="M130.25 110.65 L131.3 113.9 135.3 117.6 133.55 124.35 127.25 126.9 126.75 129.15 119.65 128.7 115.3 130.35 114.6 128.45 111.35 130.6 108.8 130.45 109.0 123.8 110.75 119.6 97.8 98.9 97.3 95.15 96.3 93.8 104.8 88.05 111.0 83.8 117.7 82.65 118.25 83.4 118.0 84.05 117.45 85.65 Q110.7 91.6 104.85 93.6 100.25 96.05 97.3 95.15 100.7 96.7 106.05 96.15 L115.8 110.45 115.75 117.95 121.2 124.7 122.8 120.75 122.85 114.9 118.1 108.5 115.3 104.5 115.2 103.95 115.65 94.0 116.25 90.4 119.5 85.2 122.05 88.8 123.75 103.85 130.25 110.65 M94.85 92.95 L93.1 94.15 92.8 94.25 92.6 94.3 90.35 94.35 89.8 92.1 89.45 90.55 87.05 80.95 92.0 76.55 89.25 76.1 Q87.55 75.65 86.1 73.1 84.6 70.5 84.9 68.05 85.2 65.6 84.7 64.15 L84.45 63.4 86.1 60.15 93.55 60.4 93.55 60.7 Q92.45 61.3 92.05 62.5 91.75 63.25 91.9 64.05 L92.05 64.7 92.1 64.75 92.4 65.35 93.6 66.2 Q94.65 66.5 95.75 65.9 96.8 65.3 97.25 64.1 97.7 62.9 97.25 61.8 96.75 60.7 95.7 60.4 L95.65 60.25 97.8 60.0 98.9 66.05 100.3 66.5 101.75 64.7 101.65 66.95 101.05 69.45 100.9 69.85 100.05 71.7 Q98.75 74.0 96.4 75.35 L95.3 75.9 Q93.65 76.6 92.0 76.55 93.65 76.6 95.3 75.9 L96.4 75.35 Q98.75 74.0 100.05 71.7 L100.9 69.85 101.05 69.45 103.25 68.2 103.35 63.6 104.0 62.1 104.65 60.65 107.15 53.3 104.95 53.05 106.45 46.55 106.5 46.3 111.15 43.75 113.45 49.25 112.95 56.05 108.15 65.35 105.75 70.0 107.0 73.25 107.8 72.45 107.95 72.4 108.1 72.35 113.0 71.55 113.3 71.75 113.65 73.7 114.3 75.3 115.15 74.95 115.75 76.0 116.1 77.0 108.3 81.9 106.75 81.3 95.3 92.5 95.3 92.45 95.1 92.7 95.05 92.75 94.85 92.95 M125.65 118.65 L122.85 114.9 125.65 118.65 M105.05 67.2 L103.25 68.2 105.05 67.2 M89.6 62.4 Q88.35 61.5 87.35 62.1 86.3 62.7 86.1 64.45 85.85 66.15 86.3 67.25 86.7 68.3 87.75 68.6 L89.85 68.35 Q90.9 67.75 91.3 66.6 L91.5 65.7 91.45 65.1 91.45 65.05 91.3 64.4 Q90.85 63.3 89.6 62.4 M91.35 70.15 L89.1 70.0 Q87.2 69.9 88.95 71.75 L89.6 72.4 Q90.9 73.7 92.0 74.05 93.35 74.45 94.7 73.7 96.05 72.9 97.3 70.9 98.55 68.85 98.0 67.5 97.45 66.15 95.9 68.2 L95.85 68.3 94.3 69.75 92.7 70.2 91.35 70.15 M80.05 118.75 Q85.9 139.65 95.45 158.5 L94.1 160.75 94.55 162.95 92.6 162.35 92.0 158.25 92.0 158.15 86.55 141.8 86.45 141.65 84.15 137.3 84.0 137.6 83.85 137.1 83.8 137.2 83.95 137.6 83.55 137.45 83.35 137.2 84.0 139.45 90.7 158.55 91.6 162.15 91.65 162.35 90.1 161.35 89.8 162.05 76.6 128.3 80.9 129.45 80.9 129.25 Q81.0 128.9 81.25 128.7 81.35 128.6 81.55 128.6 L84.25 136.75 80.05 118.75 M61.1 92.95 L60.3 80.95 63.35 84.55 66.95 93.85 65.4 91.85 64.8 91.95 65.6 95.95 Q65.15 96.25 65.65 96.1 L66.45 98.4 66.75 98.6 67.0 98.6 67.35 98.5 66.55 94.95 68.55 97.6 69.2 101.9 69.45 102.15 69.6 102.35 69.75 102.2 70.1 102.1 70.15 101.75 68.65 92.9 67.05 85.5 Q66.25 82.15 65.75 78.8 L65.85 78.05 73.0 102.0 73.15 102.7 Q72.35 103.45 72.35 104.85 L71.95 111.15 Q71.7 113.25 71.1 115.2 70.65 116.65 70.7 118.25 L68.75 112.8 Q68.65 112.55 68.05 112.5 L67.85 112.1 67.95 111.15 65.55 106.35 65.0 106.1 61.1 92.95 M64.85 96.6 L65.0 97.0 65.1 97.2 64.9 96.6 64.85 96.6 M66.75 102.05 L66.75 104.3 66.75 102.05 M73.2 105.45 L73.85 105.2 Q74.05 107.65 76.0 109.0 L77.15 109.5 77.95 112.4 Q79.0 116.15 78.9 120.15 78.75 124.35 76.2 127.3 L74.65 124.5 73.75 124.5 73.5 125.6 72.75 125.7 71.6 117.35 Q73.55 111.65 73.2 105.45 M92.0 85.25 Q98.1 82.55 107.0 73.25 98.1 82.55 92.0 85.25 L91.9 85.05 91.9 85.3 92.0 85.25 M89.45 90.55 L90.55 85.9 91.9 85.3 90.55 85.9 89.45 90.55 M99.2 77.65 L99.25 77.4 99.2 77.4 99.2 77.65 99.55 78.95 99.2 77.65 M100.0 73.95 L99.25 77.4 100.0 73.95 M96.65 77.3 L99.2 77.4 96.65 77.3 M106.05 81.05 L106.75 81.3 106.05 81.05 M108.05 87.8 Q107.3 89.15 106.05 88.95 104.95 89.4 104.8 88.05 104.95 89.4 106.05 88.95 107.3 89.15 108.05 87.8 M91.15 80.9 Q90.8 82.6 91.45 84.2 L91.45 84.25 91.9 85.05 91.45 84.25 91.45 84.2 Q90.8 82.6 91.15 80.9 M111.4 74.4 L110.0 74.95 111.4 74.4 M114.3 75.3 L110.15 76.75 114.3 75.3 M107.0 62.35 L108.15 65.35 107.0 62.35 M124.6 125.05 L122.75 126.1 124.6 125.05 M127.8 124.7 L127.25 126.9 127.8 124.7 M114.6 128.45 L113.65 125.95 114.6 128.45 M119.65 128.7 L121.2 124.7 119.65 128.7 M118.35 125.6 L116.3 126.8 118.35 125.6 M112.25 122.1 L110.75 119.6 112.25 122.1 M80.8 128.4 L77.55 127.55 79.65 121.8 80.8 128.4" fill="#bcb347" fill-rule="evenodd" stroke="none"/>
    <path d="M0.0 104.85 L0.0 97.8 7.45 97.0 8.2 100.05 8.2 101.65 0.0 104.85 M105.3 12.3 L104.4 9.8 109.35 7.4 109.65 9.9 105.55 12.95 105.3 12.3" fill="#fffcd5" fill-rule="evenodd" stroke="none"/>
    <path d="M9.95 87.4 Q21.25 71.05 28.4 54.4 L42.4 43.1 42.3 42.9 Q59.2 36.45 84.4 23.25 L105.3 12.3 105.55 12.95 106.15 14.6 Q98.5 19.2 80.25 29.0 62.0 38.8 44.55 43.8 L44.65 43.95 43.6 44.85 31.2 55.25 Q26.8 70.35 15.65 85.9 L12.3 86.8 9.95 87.4" fill="#c68a02" fill-rule="evenodd" stroke="none"/>
    <path d="M126.9 4.85 L133.6 18.8 129.8 20.95 126.6 24.0 121.6 24.0 118.0 15.2 110.6 18.6 107.0 15.35 121.05 6.95 123.45 7.4 126.9 4.85" fill="#d87c0e" fill-rule="evenodd" stroke="none"/>
    <path d="M43.6 44.85 L44.65 43.95 50.8 52.55 49.2 53.2 49.1 53.05 43.6 44.85" fill="#724701" fill-rule="evenodd" stroke="none"/>
    <path d="M39.3 61.25 L37.5 62.8 31.2 55.25 43.6 44.85 49.1 53.05 39.3 61.25" fill="#773d02" fill-rule="evenodd" stroke="none"/>
    <path d="M37.5 62.8 L33.6 74.4 Q26.85 88.25 15.0 102.0 L17.4 108.2 Q52.45 169.05 66.65 208.7 L70.75 205.75 67.4 215.2 62.8 204.8 61.2 202.8 58.65 207.3 40.5 165.4 Q29.95 141.35 17.2 122.9 L17.85 121.9 19.8 118.8 12.6 101.6 16.8 94.6 18.2 91.4 15.65 85.9 Q26.8 70.35 31.2 55.25 L37.5 62.8" fill="#341a01" fill-rule="evenodd" stroke="none"/>
    <path d="M53.75 55.3 L57.25 56.9 47.0 59.4 45.4 59.75 43.75 60.15 39.3 61.25 49.1 53.05 49.2 53.2 53.75 55.3" fill="#4e2701" fill-rule="evenodd" stroke="none"/>
    <path d="M116.4 19.0 L115.45 22.1 114.55 24.85 114.4 25.35 113.2 29.2 96.3 41.2 Q92.0 44.05 88.95 45.75 L86.6 47.05 Q73.55 54.05 59.6 56.6 L62.0 72.6 61.45 73.9 61.05 74.45 48.7 91.95 44.3 93.3 38.7 94.95 35.3 95.95 45.4 74.1 45.4 59.75 47.0 59.4 57.25 56.9 53.75 55.3 66.1 47.7 74.6 44.2 115.45 22.1 74.6 44.2 66.1 47.7 94.2 30.35 116.4 19.0 M46.4 64.4 L47.0 59.4 46.4 64.4 M43.8 86.6 L38.7 94.95 43.8 86.6 M57.25 56.9 L59.6 56.6 57.25 56.9 M51.8 79.8 L44.3 93.3 51.8 79.8 M79.4 43.4 L98.4 34.6 114.55 24.85 98.4 34.6 79.4 43.4 M55.8 64.6 L55.6 58.8 55.8 64.6" fill="#f8f2d6" fill-rule="evenodd" stroke="none"/>
    <path d="M15.65 85.9 L18.2 91.4 16.8 94.6 12.6 101.6 19.8 118.8 17.85 121.9 8.2 104.0 8.2 101.65 8.6 101.5 8.2 100.05 8.2 96.9 7.45 97.0 7.35 96.65 12.3 86.8 15.65 85.9 M8.2 96.2 L8.2 96.9 8.2 96.2" fill="#ac5c0f" fill-rule="evenodd" stroke="none"/>
    <path d="M13.65 124.65 L10.8 126.0 0.0 107.6 0.0 104.85 8.2 101.65 8.2 104.0 17.85 121.9 17.2 122.9 Q15.45 123.75 13.65 124.65" fill="#f09d13" fill-rule="evenodd" stroke="none"/>
    <path d="M48.7 91.95 L61.05 74.45 Q55.25 83.2 54.8 91.9 72.3 123.65 83.2 156.3 L48.45 92.3 48.7 91.95" fill="#8e7846" fill-rule="evenodd" stroke="none"/>
    <path d="M106.45 46.55 L106.2 46.5 106.5 46.3 106.45 46.55 M111.45 67.2 L113.25 71.55 113.0 71.55 111.2 70.35 113.0 71.55 108.1 72.35 108.05 72.2 109.4 70.45 111.15 70.35 111.2 70.35 111.15 70.25 Q110.85 69.55 111.25 67.2 L111.45 67.2 M98.45 53.7 L96.85 52.9 106.2 46.5 98.45 53.7 M81.05 62.05 L80.05 66.55 78.35 66.6 73.15 62.15 81.05 62.05 M93.55 60.4 L94.25 60.35 93.55 60.7 93.55 60.4 M101.05 69.45 L101.65 66.95 101.75 64.7 104.0 62.1 103.35 63.6 103.25 68.2 101.05 69.45 M61.35 97.0 L58.55 93.2 60.6 93.4 61.35 97.0 M68.05 94.0 L67.45 92.3 67.95 93.2 68.05 94.0 M66.2 88.95 Q65.6 87.35 65.4 85.75 65.15 84.05 65.3 82.35 L66.2 88.95 M95.3 92.5 L95.35 92.55 95.3 92.5 M119.5 85.2 L119.55 85.1 119.6 85.1 119.5 85.2 M99.2 77.4 L99.25 77.4 99.2 77.65 99.2 77.4" fill="#8a8437" fill-rule="evenodd" stroke="none"/>
    <path d="M96.3 93.8 L95.35 92.55 95.3 92.5 106.75 81.3 108.3 81.9 116.1 77.0 115.75 76.0 119.0 75.75 Q119.8 78.35 118.25 83.4 L117.7 82.65 111.0 83.8 104.8 88.05 96.3 93.8 M106.2 46.5 L106.45 46.55 104.95 53.05 102.75 56.6 100.6 60.1 100.55 60.1 Q99.3 57.85 96.65 55.55 L96.55 55.4 98.45 53.7 106.2 46.5 M112.95 56.05 L112.6 61.55 Q111.6 65.05 111.25 67.2 110.85 69.55 111.15 70.25 L111.15 70.35 109.4 70.45 108.05 72.2 107.8 72.45 107.0 73.25 105.75 70.0 108.15 65.35 109.05 67.8 108.15 65.35 112.95 56.05 M119.6 75.7 L121.65 75.55 127.7 84.6 126.1 97.5 130.25 110.65 123.75 103.85 122.05 88.8 119.5 85.2 119.6 85.1 119.55 85.1 120.0 84.35 Q120.85 77.5 119.6 75.7 M101.55 53.85 L100.1 57.9 101.55 53.85 M120.65 83.35 L120.0 84.35 120.65 83.35 M106.05 96.15 L106.55 96.1 114.15 96.0 115.2 103.95 115.05 104.0 115.35 105.1 115.35 105.25 115.55 106.55 115.65 107.05 115.7 107.95 115.8 108.3 115.8 110.45 106.05 96.15 M125.85 102.1 L126.1 97.5 125.85 102.1" fill="#9e8e3a" fill-rule="evenodd" stroke="none"/>
    <path d="M96.85 52.9 L98.45 53.7 96.55 55.4 96.55 55.45 96.65 55.55 Q99.3 57.85 100.55 60.1 101.25 61.4 101.55 62.7 L101.75 64.7 101.55 62.7 Q101.25 61.4 100.55 60.1 L100.6 60.1 102.75 56.6 104.65 60.65 104.0 62.1 101.75 64.7 100.3 66.5 98.9 66.05 97.8 60.0 95.65 60.25 95.3 60.3 94.25 60.35 93.55 60.4 86.1 60.15 84.45 63.4 84.7 64.15 Q85.2 65.6 84.9 68.05 84.6 70.5 86.1 73.1 87.55 75.65 89.25 76.1 L92.0 76.55 87.05 80.95 85.45 82.4 82.35 75.0 81.0 78.3 78.7 72.8 80.05 66.55 81.05 62.05 81.55 59.65 89.3 49.25 96.85 52.9 M86.8 78.2 L85.45 82.4 86.8 78.2 M86.1 60.15 L86.5 59.25 86.1 60.15 M82.6 69.4 L84.45 63.4 82.6 69.4" fill="#d2c962" fill-rule="evenodd" stroke="none"/>
    <path d="M119.0 75.75 L119.6 75.7 Q120.85 77.5 120.0 84.35 L119.55 85.1 119.5 85.2 116.25 90.4 115.65 94.0 114.15 95.95 114.15 96.0 106.55 96.1 106.05 96.15 Q100.7 96.7 97.3 95.15 100.25 96.05 104.85 93.6 110.7 91.6 117.45 85.65 L118.0 84.05 118.25 83.4 Q119.8 78.35 119.0 75.75 M94.25 60.35 L95.3 60.3 95.7 60.4 Q96.75 60.7 97.25 61.8 97.7 62.9 97.25 64.1 96.8 65.3 95.75 65.9 94.65 66.5 93.6 66.2 L92.4 65.35 92.65 65.15 93.3 65.05 93.8 64.5 93.8 63.75 93.3 63.3 92.65 63.4 92.15 64.0 91.9 64.05 Q91.75 63.25 92.05 62.5 92.45 61.3 93.55 60.7 L94.25 60.35 M89.6 62.4 Q90.85 63.3 91.3 64.4 L91.45 65.05 91.45 65.1 91.5 65.7 91.3 66.6 Q90.9 67.75 89.85 68.35 L87.75 68.6 Q86.7 68.3 86.3 67.25 85.85 66.15 86.1 64.45 86.3 62.7 87.35 62.1 88.35 61.5 89.6 62.4 M89.7 65.9 Q89.85 66.2 90.15 66.3 L90.75 66.25 91.15 65.7 91.15 65.1 90.75 64.7 90.15 64.75 89.7 65.25 89.7 65.9" fill="#dfe388" fill-rule="evenodd" stroke="none"/>
    <path d="M91.9 64.05 L92.15 64.0 Q92.0 64.35 92.15 64.7 L92.05 64.7 91.9 64.05 M92.65 65.15 L92.4 65.35 92.1 64.75 92.15 64.7 92.65 65.15" fill="#cbc470" fill-rule="evenodd" stroke="none"/>
    <path d="M92.15 64.0 L92.65 63.4 93.3 63.3 93.8 63.75 93.8 64.5 93.3 65.05 92.65 65.15 92.15 64.7 Q92.0 64.35 92.15 64.0 M89.7 65.9 L89.7 65.25 90.15 64.75 90.75 64.7 91.15 65.1 91.15 65.7 90.75 66.25 90.15 66.3 Q89.85 66.2 89.7 65.9 M65.6 95.95 L65.65 96.1 Q65.15 96.25 65.6 95.95 M64.85 96.6 L64.9 96.6 65.1 97.2 65.0 97.0 64.85 96.6" fill="#000000" fill-rule="evenodd" stroke="none"/>
    <path d="M115.65 94.0 L115.2 103.95 114.15 96.0 114.15 95.95 115.65 94.0 M118.1 108.5 L122.85 114.9 122.8 120.75 121.2 124.7 115.75 117.95 115.8 110.45 115.8 108.3 115.65 107.05 115.55 106.55 115.45 105.6 115.55 105.5 118.1 108.5 M104.65 60.65 L102.75 56.6 104.95 53.05 107.15 53.3 104.65 60.65" fill="#dfda9f" fill-rule="evenodd" stroke="none"/>
    <path d="M112.6 142.95 L94.8 148.5 82.4 107.2 59.6 56.6 Q73.55 54.05 86.6 47.05 L70.85 63.65 74.05 86.95 79.2 94.45 84.35 87.7 89.8 92.1 90.35 94.35 92.6 94.3 92.95 94.6 89.95 102.95 88.15 101.9 87.9 111.9 90.7 116.1 93.4 116.35 96.2 118.55 96.2 119.35 102.2 123.1 98.2 126.1 98.2 136.0 102.0 141.7 112.6 142.95 M113.2 29.2 L126.95 61.95 116.45 51.15 115.45 44.55 109.05 39.1 104.3 42.35 96.3 41.2 113.2 29.2 M96.95 105.95 L101.3 108.75 101.65 113.3 96.15 108.45 96.95 105.95" fill="#e0cf74" fill-rule="evenodd" stroke="none"/>
    <path d="M89.6 72.4 L88.95 71.75 Q87.2 69.9 89.1 70.0 L91.35 70.15 89.6 72.4" fill="#393615" fill-rule="evenodd" stroke="none"/>
    <path d="M94.8 148.5 L98.8 165.7 91.0 183.4 Q87.75 169.9 83.2 156.3 72.3 123.65 54.8 91.9 55.25 83.2 61.05 74.45 L61.45 73.9 62.0 72.6 59.6 56.6 82.4 107.2 94.8 148.5 M80.05 118.75 L77.7 108.55 Q75.6 108.25 75.05 106.2 L74.9 105.5 74.8 104.7 74.7 104.45 66.25 76.35 65.9 75.95 65.7 76.1 Q63.9 80.15 63.35 84.55 L60.3 80.95 61.1 92.95 60.6 93.4 58.55 93.2 61.35 97.0 65.15 109.95 Q65.45 110.55 66.05 110.1 L66.05 109.9 70.95 122.7 71.4 124.65 Q71.85 127.65 74.4 126.2 L89.5 163.95 90.3 164.15 90.65 163.0 91.7 163.35 92.6 162.35 94.55 162.95 94.1 160.75 95.45 158.5 Q85.9 139.65 80.05 118.75 M68.05 112.5 L67.9 112.7 Q67.8 112.5 67.85 112.1 L68.05 112.5" fill="#f7ef99" fill-rule="evenodd" stroke="none"/>
    <path d="M63.35 84.55 Q63.9 80.15 65.7 76.1 L65.9 75.95 66.25 76.35 74.7 104.45 74.8 104.7 74.9 105.5 75.05 106.2 Q75.6 108.25 77.7 108.55 L80.05 118.75 84.25 136.75 81.55 128.6 Q81.35 128.6 81.25 128.7 81.0 128.9 80.9 129.25 L80.9 129.45 76.6 128.3 89.8 162.05 90.1 161.35 91.65 162.35 91.6 162.15 90.7 158.55 84.0 139.45 83.35 137.2 83.55 137.45 83.95 137.6 84.0 137.6 84.15 137.3 86.45 141.65 86.55 141.8 92.0 158.15 92.0 158.25 92.6 162.35 91.7 163.35 90.65 163.0 90.3 164.15 89.5 163.95 74.4 126.2 Q71.85 127.65 71.4 124.65 L70.95 122.7 66.05 109.9 66.05 110.1 Q65.45 110.55 65.15 109.95 L61.35 97.0 60.6 93.4 61.1 92.95 65.0 106.1 65.55 106.35 67.95 111.15 67.85 112.1 Q67.8 112.5 67.9 112.7 L68.05 112.5 Q68.65 112.55 68.75 112.8 L70.7 118.25 Q70.65 116.65 71.1 115.2 71.7 113.25 71.95 111.15 L72.35 104.85 Q72.35 103.45 73.15 102.7 L73.0 102.0 65.85 78.05 65.75 78.8 Q66.25 82.15 67.05 85.5 L68.65 92.9 70.15 101.75 70.1 102.1 69.75 102.2 69.6 102.35 69.45 102.15 69.2 101.9 68.55 97.6 66.55 94.95 67.35 98.5 67.0 98.6 66.75 98.6 66.45 98.4 65.65 96.1 65.6 95.95 64.8 91.95 65.4 91.85 66.95 93.85 63.35 84.55 M66.2 88.95 L65.3 82.35 Q65.15 84.05 65.4 85.75 65.6 87.35 66.2 88.95 M68.05 94.0 L67.95 93.2 67.45 92.3 68.05 94.0 M73.2 105.45 Q73.55 111.65 71.6 117.35 L72.75 125.7 73.5 125.6 73.75 124.5 74.65 124.5 76.2 127.3 Q78.75 124.35 78.9 120.15 79.0 116.15 77.95 112.4 L77.15 109.5 76.0 109.0 Q74.05 107.65 73.85 105.2 L73.2 105.45 M80.8 128.4 L79.65 121.8 77.55 127.55 80.8 128.4" fill="#70652e" fill-rule="evenodd" stroke="none"/>
    <path d="M111.15 70.35 L111.15 70.25 111.2 70.35 111.15 70.35 M95.35 92.55 L95.05 92.75 95.1 92.7 95.3 92.5 95.35 92.55" fill="#ccc782" fill-rule="evenodd" stroke="none"/>
    <path d="M91.35 70.15 L92.7 70.2 94.3 69.75 94.9 71.0 96.85 69.75 95.85 68.3 95.9 68.2 Q97.45 66.15 98.0 67.5 98.55 68.85 97.3 70.9 96.05 72.9 94.7 73.7 93.35 74.45 92.0 74.05 90.9 73.7 89.6 72.4 L91.35 70.15" fill="#585321" fill-rule="evenodd" stroke="none"/>
    <path d="M95.35 92.55 L94.85 92.95 95.05 92.75 95.35 92.55" fill="#cdba7a" fill-rule="evenodd" stroke="none"/>
    <path d="M92.8 94.25 L92.95 94.6 92.6 94.3 92.8 94.25" fill="#dccba3" fill-rule="evenodd" stroke="none"/>
    <path d="M155.0 86.4 L157.8 86.6 163.8 100.6 154.6 109.8 152.25 107.1 149.05 109.7 146.45 118.5 Q152.55 127.65 120.8 140.4 L112.6 142.95 94.8 148.5 98.8 165.7 91.0 183.4 78.0 200.4 74.8 202.75 Q74.95 206.05 74.2 209.9 L76.4 215.6 68.0 232.8 63.6 232.8 53.8 210.4 55.7 207.25 Q47.8 189.5 36.35 166.95 24.1 142.85 13.65 124.65 L10.8 126.0 0.0 107.6 0.0 104.85 0.0 97.8 0.0 95.2 4.4 88.8 9.95 87.4 Q21.25 71.05 28.4 54.4 L42.4 43.1 42.3 42.9 Q59.2 36.45 84.4 23.25 L105.3 12.3 104.4 9.8 109.35 7.4 124.6 0.0 126.9 4.85 133.6 18.8 129.8 20.95 155.0 86.4 150.2 90.8 153.6 99.0 155.2 101.2 153.0 103.2 M149.05 109.7 L148.45 97.75 116.4 19.0 94.2 30.35 50.8 52.55 49.2 53.2 49.1 53.05 39.3 61.25 43.75 60.15 45.4 59.75 47.0 59.4 57.25 56.9 53.75 55.3 49.2 53.2 M153.6 99.0 L150.8 103.2 152.25 107.1 M141.0 95.6 L146.45 118.5 M105.3 12.3 L105.55 12.95 106.15 14.6 107.0 15.35 110.6 18.6 118.0 15.2 121.6 24.0 126.6 24.0 129.8 20.95 M44.65 43.95 L44.55 43.8 M43.6 44.85 L44.65 43.95 50.8 52.55 M39.3 61.25 L37.5 62.8 33.6 74.4 Q26.85 88.25 15.0 102.0 L17.4 108.2 Q52.45 169.05 66.65 208.7 L70.75 205.75 74.8 202.75 M37.5 62.8 L31.2 55.25 M15.65 85.9 L18.2 91.4 16.8 94.6 12.6 101.6 19.8 118.8 17.85 121.9 17.2 122.9 Q15.45 123.75 13.65 124.65 M58.65 207.3 L61.2 202.8 62.8 204.8 67.4 215.2 70.75 205.75 74.2 209.9 M49.1 53.05 L43.6 44.85 M8.2 96.9 L8.2 96.2 M8.2 96.9 L8.2 100.05 8.2 101.65 8.2 104.0 17.85 121.9 M15.65 85.9 L12.3 86.8 9.95 87.4 M59.6 56.6 L57.25 56.9 M94.8 148.5 L82.4 107.2 59.6 56.6 M58.65 207.3 L55.7 207.25 M53.8 210.4 L59.95 210.15 62.8 204.8" ffdec:has-small-stroke="true" ffdec:original-stroke-width="0.25" fill="none" stroke="#000000" stroke-linecap="round" stroke-linejoin="round" stroke-opacity="0.24313726" stroke-width="1.0"/>
    <path d="M156.7 88.1 L152.1 91.4 M130.25 110.65 L131.3 113.9 135.3 117.6 133.55 124.35 127.25 126.9 126.75 129.15 119.65 128.7 115.3 130.35 114.6 128.45 111.35 130.6 108.8 130.45 109.0 123.8 110.75 119.6 97.8 98.9 97.3 95.15 96.3 93.8 95.35 92.55 95.3 92.5 95.1 92.7 95.3 92.45 95.3 92.5 106.75 81.3 106.05 81.05 M94.85 92.95 L93.1 94.15 92.8 94.25 92.6 94.3 90.35 94.35 89.8 92.1 89.45 90.55 87.05 80.95 85.45 82.4 86.8 78.2 M106.45 46.55 L106.5 46.3 106.2 46.5 106.5 46.2 106.5 46.3 111.15 43.75 113.45 49.25 112.95 56.05 112.6 61.55 111.45 67.2 113.25 71.55 113.3 71.75 113.65 73.7 114.3 75.3 115.15 74.95 115.75 76.0 119.0 75.75 119.6 75.7 121.65 75.55 127.7 84.6 126.1 97.5 130.25 110.65 M119.5 85.2 L116.25 90.4 115.65 94.0 115.2 103.95 115.3 104.5 118.1 108.5 122.85 114.9 125.65 118.65 M98.45 53.7 L96.85 52.9 89.3 49.25 81.55 59.65 81.05 62.05 80.05 66.55 78.7 72.8 81.0 78.3 82.35 75.0 85.45 82.4 M96.55 55.4 L96.55 55.45 96.65 55.55 Q99.3 57.85 100.55 60.1 101.25 61.4 101.55 62.7 L101.75 64.7 104.0 62.1 104.65 60.65 102.75 56.6 100.6 60.1 100.55 60.1 M96.55 55.4 L98.45 53.7 106.2 46.5 96.85 52.9 M94.25 60.35 L95.3 60.3 95.65 60.25 97.8 60.0 98.9 66.05 100.3 66.5 101.75 64.7 101.65 66.95 101.05 69.45 103.25 68.2 105.05 67.2 M93.55 60.4 L94.25 60.35 93.55 60.7 Q92.45 61.3 92.05 62.5 91.75 63.25 91.9 64.05 L92.05 64.7 92.1 64.75 92.4 65.35 93.6 66.2 Q94.65 66.5 95.75 65.9 96.8 65.3 97.25 64.1 97.7 62.9 97.25 61.8 96.75 60.7 95.7 60.4 L95.3 60.3 M93.55 60.4 L86.1 60.15 84.45 63.4 84.7 64.15 Q85.2 65.6 84.9 68.05 84.6 70.5 86.1 73.1 87.55 75.65 89.25 76.1 L92.0 76.55 Q93.65 76.6 95.3 75.9 L96.4 75.35 Q98.75 74.0 100.05 71.7 L100.9 69.85 101.05 69.45 M104.95 53.05 L102.75 56.6 M104.0 62.1 L103.35 63.6 103.25 68.2 M104.65 60.65 L107.15 53.3 104.95 53.05 106.45 46.55 M100.1 57.9 L101.55 53.85 M89.6 62.4 Q90.85 63.3 91.3 64.4 L91.45 65.05 91.45 65.1 91.5 65.7 91.3 66.6 Q90.9 67.75 89.85 68.35 L87.75 68.6 Q86.7 68.3 86.3 67.25 85.85 66.15 86.1 64.45 86.3 62.7 87.35 62.1 88.35 61.5 89.6 62.4 M86.5 59.25 L86.1 60.15 M80.05 66.55 L78.35 66.6 73.15 62.15 81.05 62.05 M89.6 72.4 L88.95 71.75 Q87.2 69.9 89.1 70.0 L91.35 70.15 92.7 70.2 94.3 69.75 95.85 68.3 95.9 68.2 Q97.45 66.15 98.0 67.5 98.55 68.85 97.3 70.9 96.05 72.9 94.7 73.7 93.35 74.45 92.0 74.05 90.9 73.7 89.6 72.4 L91.35 70.15 M73.0 102.0 L73.15 102.7 M66.75 104.3 L66.75 102.05 M111.15 70.25 Q110.85 69.55 111.25 67.2 111.6 65.05 112.6 61.55 M111.15 70.35 L111.2 70.35 111.15 70.25 M113.0 71.55 L113.3 71.75 M113.0 71.55 L113.25 71.55 M115.75 76.0 L116.1 77.0 108.3 81.9 106.75 81.3 M95.05 92.75 L94.85 92.95 M111.2 70.35 L113.0 71.55 108.1 72.35 107.95 72.4 107.8 72.45 107.0 73.25 Q98.1 82.55 92.0 85.25 L91.9 85.3 90.55 85.9 89.45 90.55 M118.25 83.4 Q119.8 78.35 119.0 75.75 M119.5 85.2 L119.55 85.1 120.0 84.35 Q120.85 77.5 119.6 75.7 M97.3 95.15 Q100.25 96.05 104.85 93.6 110.7 91.6 117.45 85.65 L118.0 84.05 118.25 83.4 M120.0 84.35 L120.65 83.35 M109.05 67.8 L108.15 65.35 107.0 62.35 M107.95 72.4 L108.05 72.2 107.8 72.45 M108.05 72.2 L109.4 70.45 111.15 70.35 M94.3 69.75 L94.9 71.0 96.85 69.75 95.85 68.3 M99.2 77.65 L99.25 77.4 99.2 77.4 96.65 77.3 M99.2 77.65 L99.55 78.95 M92.0 85.25 L91.9 85.05 91.9 85.3 M91.9 85.05 L91.45 84.25 91.45 84.2 Q90.8 82.6 91.15 80.9 M104.8 88.05 Q104.95 89.4 106.05 88.95 107.3 89.15 108.05 87.8 M99.25 77.4 L100.0 73.95 M106.05 96.15 L106.55 96.1 114.15 96.0 114.15 95.95 115.65 94.0 M95.1 92.7 L95.05 92.75 M97.3 95.15 Q100.7 96.7 106.05 96.15 M115.8 110.45 L115.8 108.3 115.7 107.95 115.65 107.05 115.55 106.55 115.35 105.25 115.35 105.1 115.05 104.0 115.2 103.95 114.15 96.0 M115.3 104.5 L115.05 104.0 115.35 105.0 115.3 104.5 M115.35 105.1 L115.4 105.25 115.35 105.0 115.35 105.1 M115.35 105.25 L115.4 105.3 115.4 105.25 115.4 105.3 115.55 105.5 118.1 108.5 M115.4 105.3 L115.45 105.6 115.4 105.3 M115.45 105.6 L115.55 106.55 M115.65 107.05 L115.8 108.3 M126.1 97.5 L125.85 102.1 M110.15 76.75 L114.3 75.3 M110.0 74.95 L111.4 74.4 M92.0 76.55 L87.05 80.95 M84.45 63.4 L82.6 69.4 M122.75 126.1 L124.6 125.05 M115.8 110.45 L115.75 117.95 121.2 124.7 122.8 120.75 122.85 114.9 M110.75 119.6 L112.25 122.1 M116.3 126.8 L118.35 125.6 M121.2 124.7 L119.65 128.7 M113.65 125.95 L114.6 128.45 M127.25 126.9 L127.8 124.7" fill="none" stroke="#000000" stroke-linecap="round" stroke-linejoin="round" stroke-opacity="0.52156866" stroke-width="1.0"/>
    <path d="M47.0 59.4 L46.4 64.4 M38.7 94.95 L43.8 86.6 M44.3 93.3 L51.8 79.8 M114.55 24.85 L98.4 34.6 79.4 43.4 M66.1 47.7 L53.6 52.8 M55.6 58.8 L55.8 64.6 M115.45 22.1 L74.6 44.2 66.1 47.7" fill="none" stroke="#bcac78" stroke-linecap="round" stroke-linejoin="round" stroke-width="1.0"/>
    <path d="M114.4 25.35 L137.0 80.2 M43.75 60.15 L42.6 68.2 38.2 78.2 M23.2 99.4 L29.2 93.0 M55.4 154.4 L72.2 196.8 M45.0 93.6 Q59.65 118.0 70.85 142.0 78.55 158.5 84.6 174.8 M23.4 100.0 Q46.5 139.65 60.2 174.0" fill="none" stroke="#957e4a" stroke-linecap="round" stroke-linejoin="round" stroke-width="1.0"/>
    <path d="M61.05 74.45 L61.45 73.9 62.0 72.6 59.6 56.6 M54.8 91.9 Q55.25 83.2 61.05 74.45" fill="none" stroke="#f8f2d6" stroke-linecap="round" stroke-linejoin="round" stroke-width="1.0"/>
  </g>
</svg>
